{
	"asset":{
		"generator":"Khronos glTF Blender I/O v4.4.55",
		"version":"2.0"
	},
	"scene":0,
	"scenes":[
		{
			"name":"techLogo_Redux",
			"nodes":[
				0
			]
		}
	],
	"nodes":[
		{
			"mesh":0,
			"name":"NurbsPath.001",
			"rotation":[
				0.0022124412935227156,
				0.011898072436451912,
				0.9667332172393799,
				0.25550031661987305
			],
			"scale":[
				8.216744422912598,
				7.972301006317139,
				7.734777450561523
			],
			"translation":[
				0,
				-30.999998092651367,
				0
			]
		}
	],
	"materials":[
		{
			"doubleSided":true,
			"name":"Material",
			"pbrMetallicRoughness":{
				"baseColorFactor":[
					0.23041263222694397,
					0.02805567905306816,
					0.8001648187637329,
					1
				],
				"roughnessFactor":0.5
			}
		}
	],
	"meshes":[
		{
			"name":"NurbsPath.001",
			"primitives":[
				{
					"attributes":{
						"POSITION":0,
						"NORMAL":1,
						"TEXCOORD_0":2
					},
					"indices":3,
					"material":0
				}
			]
		}
	],
	"accessors":[
		{
			"bufferView":0,
			"componentType":5126,
			"count":4695,
			"max":[
				12.69152545928955,
				16.365880966186523,
				1.3680542707443237
			],
			"min":[
				-17.211666107177734,
				-15.732425689697266,
				-1.6135138273239136
			],
			"type":"VEC3"
		},
		{
			"bufferView":1,
			"componentType":5126,
			"count":4695,
			"type":"VEC3"
		},
		{
			"bufferView":2,
			"componentType":5126,
			"count":4695,
			"type":"VEC2"
		},
		{
			"bufferView":3,
			"componentType":5123,
			"count":25668,
			"type":"SCALAR"
		}
	],
	"bufferViews":[
		{
			"buffer":0,
			"byteLength":56340,
			"byteOffset":0,
			"target":34962
		},
		{
			"buffer":0,
			"byteLength":56340,
			"byteOffset":56340,
			"target":34962
		},
		{
			"buffer":0,
			"byteLength":37560,
			"byteOffset":112680,
			"target":34962
		},
		{
			"buffer":0,
			"byteLength":51336,
			"byteOffset":150240,
			"target":34963
		}
	],
	"buffers":[
		{
			"byteLength":201576,
			"uri":"Redux.bin"
		}
	]
}
