{
	"asset":{
		"generator":"Khronos glTF Blender I/O v4.4.56",
		"version":"2.0"
	},
	"scene":0,
	"scenes":[
		{
			"name":"techLogo_Three",
			"nodes":[
				0
			]
		}
	],
	"nodes":[
		{
			"mesh":0,
			"name":"Object_5",
			"scale":[
				0.25586435198783875,
				0.25586429238319397,
				0.25586429238319397
			]
		}
	],
	"materials":[
		{
			"doubleSided":true,
			"name":"Material.002",
			"pbrMetallicRoughness":{
				"baseColorFactor":[
					0,
					0,
					0,
					1
				],
				"roughnessFactor":0.5
			}
		}
	],
	"meshes":[
		{
			"name":"Object_0",
			"primitives":[
				{
					"attributes":{
						"POSITION":0,
						"NORMAL":1,
						"TEXCOORD_0":2
					},
					"indices":3,
					"material":0
				}
			]
		}
	],
	"accessors":[
		{
			"bufferView":0,
			"componentType":5126,
			"count":398,
			"max":[
				57.76491165161133,
				43.83803176879883,
				0
			],
			"min":[
				-41.2931022644043,
				-56.180049896240234,
				-4.462080001831055
			],
			"type":"VEC3"
		},
		{
			"bufferView":1,
			"componentType":5126,
			"count":398,
			"type":"VEC3"
		},
		{
			"bufferView":2,
			"componentType":5126,
			"count":398,
			"type":"VEC2"
		},
		{
			"bufferView":3,
			"componentType":5123,
			"count":1080,
			"type":"SCALAR"
		}
	],
	"bufferViews":[
		{
			"buffer":0,
			"byteLength":4776,
			"byteOffset":0,
			"target":34962
		},
		{
			"buffer":0,
			"byteLength":4776,
			"byteOffset":4776,
			"target":34962
		},
		{
			"buffer":0,
			"byteLength":3184,
			"byteOffset":9552,
			"target":34962
		},
		{
			"buffer":0,
			"byteLength":2160,
			"byteOffset":12736,
			"target":34963
		}
	],
	"buffers":[
		{
			"byteLength":14896,
			"uri":"Three.bin"
		}
	]
}
