{
	"asset":{
		"generator":"Khronos glTF Blender I/O v5.0.21",
		"version":"2.0"
	},
	"scene":0,
	"scenes":[
		{
			"name":"Scene",
			"nodes":[
				8,
				9
			]
		}
	],
	"nodes":[
		{
			"mesh":0,
			"name":"TV_LP_02 - Default_0"
		},
		{
			"mesh":1,
			"name":"TV_LP_03 - Default_0"
		},
		{
			"mesh":2,
			"name":"TV_LP_07 - Default_0"
		},
		{
			"mesh":3,
			"name":"TV_LP_08 - Default_0"
		},
		{
			"children":[
				0,
				1,
				2,
				3
			],
			"name":"Object_4",
			"translation":[
				-2.6637935638427734,
				1.239539384841919,
				-5.302497863769531
			]
		},
		{
			"children":[
				4
			],
			"name":"TV_LP",
			"rotation":[
				-0.70710688829422,
				0,
				0,
				0.7071066498756409
			],
			"translation":[
				0.5358538627624512,
				17.288623809814453,
				16.21433448791504
			]
		},
		{
			"children":[
				5
			],
			"name":"RootNode"
		},
		{
			"children":[
				6
			],
			"name":"e141a0c76c9c4f19930d5fba4a8045a7.fbx",
			"rotation":[
				0.70710688829422,
				0,
				0,
				0.7071066498756409
			]
		},
		{
			"children":[
				7
			],
			"name":"Sketchfab_model",
			"rotation":[
				-0.70710688829422,
				0,
				0,
				0.7071066498756409
			]
		},
		{
			"mesh":4,
			"name":"screen",
			"rotation":[
				-0.70710688829422,
				0,
				0,
				0.7071066498756409
			],
			"translation":[
				-2.0018692016601562,
				11.986113548278809,
				14.974787712097168
			]
		}
	],
	"materials":[
		{
			"doubleSided":true,
			"name":"02_-_Default.003",
			"normalTexture":{
				"index":0
			},
			"pbrMetallicRoughness":{
				"baseColorTexture":{
					"index":1
				},
				"metallicRoughnessTexture":{
					"index":2
				},
				"roughnessFactor":0.8873634338378906
			}
		},
		{
			"doubleSided":true,
			"name":"03_-_Default.003",
			"normalTexture":{
				"index":3
			},
			"pbrMetallicRoughness":{
				"baseColorTexture":{
					"index":4
				},
				"metallicRoughnessTexture":{
					"index":5
				},
				"roughnessFactor":0.1839209347963333
			}
		},
		{
			"doubleSided":true,
			"name":"07_-_Default.003",
			"normalTexture":{
				"index":6
			},
			"pbrMetallicRoughness":{
				"baseColorTexture":{
					"index":7
				},
				"metallicRoughnessTexture":{
					"index":8
				}
			}
		},
		{
			"doubleSided":true,
			"name":"08_-_Default.003",
			"normalTexture":{
				"index":9
			},
			"pbrMetallicRoughness":{
				"baseColorTexture":{
					"index":10
				},
				"metallicRoughnessTexture":{
					"index":11
				},
				"roughnessFactor":0.6989413499832153
			}
		},
		{
			"doubleSided":true,
			"emissiveFactor":[
				1,
				1,
				1
			],
			"name":"09_-_Default.002",
			"pbrMetallicRoughness":{
				"baseColorFactor":[
					0,
					0,
					0,
					1
				]
			}
		}
	],
	"meshes":[
		{
			"name":"TV_LP_02 - Default_0.002",
			"primitives":[
				{
					"attributes":{
						"POSITION":0,
						"NORMAL":1,
						"TEXCOORD_0":2
					},
					"indices":3,
					"material":0
				}
			]
		},
		{
			"name":"TV_LP_03 - Default_0.002",
			"primitives":[
				{
					"attributes":{
						"POSITION":4,
						"NORMAL":5,
						"TEXCOORD_0":6
					},
					"indices":7,
					"material":1
				}
			]
		},
		{
			"name":"TV_LP_07 - Default_0.002",
			"primitives":[
				{
					"attributes":{
						"POSITION":8,
						"NORMAL":9,
						"TEXCOORD_0":10
					},
					"indices":11,
					"material":2
				}
			]
		},
		{
			"name":"TV_LP_08 - Default_0.002",
			"primitives":[
				{
					"attributes":{
						"POSITION":12,
						"NORMAL":13,
						"TEXCOORD_0":14
					},
					"indices":15,
					"material":3
				}
			]
		},
		{
			"name":"TV_LP_09 - Default_0.001",
			"primitives":[
				{
					"attributes":{
						"POSITION":16,
						"NORMAL":17,
						"TEXCOORD_0":18
					},
					"indices":19,
					"material":4
				}
			]
		}
	],
	"textures":[
		{
			"sampler":0,
			"source":0
		},
		{
			"sampler":0,
			"source":1
		},
		{
			"sampler":0,
			"source":2
		},
		{
			"sampler":0,
			"source":3
		},
		{
			"sampler":0,
			"source":4
		},
		{
			"sampler":0,
			"source":5
		},
		{
			"sampler":0,
			"source":6
		},
		{
			"sampler":0,
			"source":7
		},
		{
			"sampler":0,
			"source":8
		},
		{
			"sampler":0,
			"source":9
		},
		{
			"sampler":0,
			"source":10
		},
		{
			"sampler":0,
			"source":11
		}
	],
	"images":[
		{
			"mimeType":"image/png",
			"name":"02_-_Default_normal.png",
			"uri":"../TV2/textures/02_-_Default_normal.png"
		},
		{
			"mimeType":"image/png",
			"name":"02_-_Default_baseColor.png",
			"uri":"../TV2/textures/02_-_Default_baseColor.png"
		},
		{
			"mimeType":"image/png",
			"name":"02_-_Default_metallicRoughness.png",
			"uri":"../TV2/textures/02_-_Default_metallicRoughness.png"
		},
		{
			"mimeType":"image/png",
			"name":"03_-_Default_normal.png",
			"uri":"../TV2/textures/03_-_Default_normal.png"
		},
		{
			"mimeType":"image/png",
			"name":"03_-_Default_baseColor.png",
			"uri":"../TV2/textures/03_-_Default_baseColor.png"
		},
		{
			"mimeType":"image/png",
			"name":"03_-_Default_metallicRoughness.png",
			"uri":"../TV2/textures/03_-_Default_metallicRoughness.png"
		},
		{
			"mimeType":"image/png",
			"name":"07_-_Default_normal.png",
			"uri":"../TV2/textures/07_-_Default_normal.png"
		},
		{
			"mimeType":"image/png",
			"name":"07_-_Default_baseColor.png",
			"uri":"../TV2/textures/07_-_Default_baseColor.png"
		},
		{
			"mimeType":"image/png",
			"name":"07_-_Default_metallicRoughness.png",
			"uri":"../TV2/textures/07_-_Default_metallicRoughness.png"
		},
		{
			"mimeType":"image/png",
			"name":"08_-_Default_normal.png",
			"uri":"../TV2/textures/08_-_Default_normal.png"
		},
		{
			"mimeType":"image/png",
			"name":"08_-_Default_baseColor.png",
			"uri":"../TV2/textures/08_-_Default_baseColor.png"
		},
		{
			"mimeType":"image/png",
			"name":"08_-_Default_metallicRoughness.png",
			"uri":"../TV2/textures/08_-_Default_metallicRoughness.png"
		}
	],
	"accessors":[
		{
			"bufferView":0,
			"componentType":5126,
			"count":995,
			"max":[
				26.72547721862793,
				-11.056119918823242,
				21.762353897094727
			],
			"min":[
				-21.397890090942383,
				-14.417396545410156,
				-9.244673728942871
			],
			"type":"VEC3"
		},
		{
			"bufferView":1,
			"componentType":5126,
			"count":995,
			"type":"VEC3"
		},
		{
			"bufferView":2,
			"componentType":5126,
			"count":995,
			"type":"VEC2"
		},
		{
			"bufferView":3,
			"componentType":5123,
			"count":3369,
			"type":"SCALAR"
		},
		{
			"bufferView":4,
			"componentType":5126,
			"count":932,
			"max":[
				25.4041748046875,
				-10.552992820739746,
				20.009553909301758
			],
			"min":[
				-19.710298538208008,
				-15.457558631896973,
				-7.170261383056641
			],
			"type":"VEC3"
		},
		{
			"bufferView":5,
			"componentType":5126,
			"count":932,
			"type":"VEC3"
		},
		{
			"bufferView":6,
			"componentType":5126,
			"count":932,
			"type":"VEC2"
		},
		{
			"bufferView":7,
			"componentType":5123,
			"count":2898,
			"type":"SCALAR"
		},
		{
			"bufferView":8,
			"componentType":5126,
			"count":335,
			"max":[
				26.377220153808594,
				12.978463172912598,
				21.45441436767578
			],
			"min":[
				-21.02060890197754,
				-11.48180103302002,
				-11.157336235046387
			],
			"type":"VEC3"
		},
		{
			"bufferView":9,
			"componentType":5126,
			"count":335,
			"type":"VEC3"
		},
		{
			"bufferView":10,
			"componentType":5126,
			"count":335,
			"type":"VEC2"
		},
		{
			"bufferView":11,
			"componentType":5123,
			"count":1245,
			"type":"SCALAR"
		},
		{
			"bufferView":12,
			"componentType":5126,
			"count":172,
			"max":[
				26.72547721862793,
				0.15368372201919556,
				21.762338638305664
			],
			"min":[
				-21.397890090942383,
				-11.056122779846191,
				-9.244673728942871
			],
			"type":"VEC3"
		},
		{
			"bufferView":13,
			"componentType":5126,
			"count":172,
			"type":"VEC3"
		},
		{
			"bufferView":14,
			"componentType":5126,
			"count":172,
			"type":"VEC2"
		},
		{
			"bufferView":15,
			"componentType":5123,
			"count":378,
			"type":"SCALAR"
		},
		{
			"bufferView":16,
			"componentType":5126,
			"count":405,
			"max":[
				11.558525085449219,
				-11.192580223083496,
				17.607563018798828
			],
			"min":[
				-17.115957260131836,
				-13.834369659423828,
				-5.0302276611328125
			],
			"type":"VEC3"
		},
		{
			"bufferView":17,
			"componentType":5126,
			"count":405,
			"type":"VEC3"
		},
		{
			"bufferView":18,
			"componentType":5126,
			"count":405,
			"type":"VEC2"
		},
		{
			"bufferView":19,
			"componentType":5123,
			"count":2292,
			"type":"SCALAR"
		}
	],
	"bufferViews":[
		{
			"buffer":0,
			"byteLength":11940,
			"byteOffset":0,
			"target":34962
		},
		{
			"buffer":0,
			"byteLength":11940,
			"byteOffset":11940,
			"target":34962
		},
		{
			"buffer":0,
			"byteLength":7960,
			"byteOffset":23880,
			"target":34962
		},
		{
			"buffer":0,
			"byteLength":6738,
			"byteOffset":31840,
			"target":34963
		},
		{
			"buffer":0,
			"byteLength":11184,
			"byteOffset":38580,
			"target":34962
		},
		{
			"buffer":0,
			"byteLength":11184,
			"byteOffset":49764,
			"target":34962
		},
		{
			"buffer":0,
			"byteLength":7456,
			"byteOffset":60948,
			"target":34962
		},
		{
			"buffer":0,
			"byteLength":5796,
			"byteOffset":68404,
			"target":34963
		},
		{
			"buffer":0,
			"byteLength":4020,
			"byteOffset":74200,
			"target":34962
		},
		{
			"buffer":0,
			"byteLength":4020,
			"byteOffset":78220,
			"target":34962
		},
		{
			"buffer":0,
			"byteLength":2680,
			"byteOffset":82240,
			"target":34962
		},
		{
			"buffer":0,
			"byteLength":2490,
			"byteOffset":84920,
			"target":34963
		},
		{
			"buffer":0,
			"byteLength":2064,
			"byteOffset":87412,
			"target":34962
		},
		{
			"buffer":0,
			"byteLength":2064,
			"byteOffset":89476,
			"target":34962
		},
		{
			"buffer":0,
			"byteLength":1376,
			"byteOffset":91540,
			"target":34962
		},
		{
			"buffer":0,
			"byteLength":756,
			"byteOffset":92916,
			"target":34963
		},
		{
			"buffer":0,
			"byteLength":4860,
			"byteOffset":93672,
			"target":34962
		},
		{
			"buffer":0,
			"byteLength":4860,
			"byteOffset":98532,
			"target":34962
		},
		{
			"buffer":0,
			"byteLength":3240,
			"byteOffset":103392,
			"target":34962
		},
		{
			"buffer":0,
			"byteLength":4584,
			"byteOffset":106632,
			"target":34963
		}
	],
	"samplers":[
		{
			"magFilter":9729,
			"minFilter":9987
		}
	],
	"buffers":[
		{
			"byteLength":111216,
			"uri":"TV2.bin"
		}
	]
}
