{
	"asset":{
		"generator":"Khronos glTF Blender I/O v4.4.56",
		"version":"2.0"
	},
	"scene":0,
	"scenes":[
		{
			"name":"Rabbit",
			"nodes":[
				0,
				1,
				2,
				3,
				4,
				5,
				6,
				7,
				8,
				9,
				10,
				11,
				12,
				13,
				14
			]
		}
	],
	"nodes":[
		{
			"mesh":0,
			"name":"body",
			"rotation":[
				0,
				0.7071068286895752,
				0,
				0.7071067094802856
			],
			"translation":[
				-0.5020153522491455,
				0,
				0.00868961215019226
			]
		},
		{
			"mesh":1,
			"name":"Cube.001",
			"rotation":[
				0,
				0.7071068286895752,
				0,
				0.7071067094802856
			],
			"scale":[
				0.4500000476837158,
				0.24999995529651642,
				1.4999996423721313
			],
			"translation":[
				-0.15369242429733276,
				-0.7768841981887817,
				0.7785906791687012
			]
		},
		{
			"mesh":2,
			"name":"Cube.002",
			"rotation":[
				0,
				0.7071068286895752,
				0,
				0.7071067094802856
			],
			"scale":[
				0.4500000476837158,
				0.24999995529651642,
				1.4999996423721313
			],
			"translation":[
				-0.15369248390197754,
				-0.7768841981887817,
				-0.7603104114532471
			]
		},
		{
			"mesh":3,
			"name":"ear1",
			"rotation":[
				0.06777318567037582,
				0.7038514018058777,
				0.06777320057153702,
				0.7038514018058777
			],
			"scale":[
				0.27000004053115845,
				1,
				0.07000000029802322
			],
			"translation":[
				-0.6403302550315857,
				0.9195475578308105,
				0.4906162917613983
			]
		},
		{
			"mesh":4,
			"name":"ear2",
			"rotation":[
				-0.06777318567037582,
				0.7038514018058777,
				-0.06777320057153702,
				0.7038514018058777
			],
			"scale":[
				0.27000004053115845,
				1,
				0.07000000029802322
			],
			"translation":[
				-0.6403302550315857,
				0.9612427949905396,
				-0.5061088800430298
			]
		},
		{
			"mesh":5,
			"name":"Sphere",
			"rotation":[
				0,
				0.7071068286895752,
				0,
				0.7071067094802856
			],
			"translation":[
				-1.6102209091186523,
				-0.25941434502601624,
				0.008689671754837036
			]
		},
		{
			"mesh":6,
			"name":"Cube.005",
			"rotation":[
				0,
				0.7071068286895752,
				0,
				0.7071067094802856
			],
			"scale":[
				1,
				1,
				0.480000376701355
			],
			"translation":[
				0.5931352376937866,
				0.4783576726913452,
				0.4683193266391754
			]
		},
		{
			"mesh":7,
			"name":"Plane.002",
			"rotation":[
				0.5,
				0.5,
				-0.5,
				0.5
			],
			"scale":[
				1,
				1,
				1.5199998617172241
			],
			"translation":[
				0.6951164603233337,
				0.47531425952911377,
				0.40665122866630554
			]
		},
		{
			"mesh":8,
			"name":"Cube.006",
			"rotation":[
				0,
				0.7071068286895752,
				0,
				0.7071067094802856
			],
			"scale":[
				1,
				1,
				0.480000376701355
			],
			"translation":[
				0.5931352376937866,
				0.4783576726913452,
				-0.4413103759288788
			]
		},
		{
			"mesh":9,
			"name":"Plane.003",
			"rotation":[
				0.5,
				0.5,
				-0.5,
				0.5
			],
			"scale":[
				1,
				1,
				1.5199999809265137
			],
			"translation":[
				0.6951165199279785,
				0.47531425952911377,
				-0.3883105218410492
			]
		},
		{
			"mesh":10,
			"name":"Plane.004",
			"rotation":[
				0.5,
				0.5,
				-0.5,
				0.5
			],
			"scale":[
				0.5430836081504822,
				0.5430836081504822,
				0.5430836081504822
			],
			"translation":[
				0.6987786293029785,
				0.534460186958313,
				0.3975304663181305
			]
		},
		{
			"mesh":11,
			"name":"Plane.005",
			"rotation":[
				0.5,
				0.5,
				-0.5,
				0.5
			],
			"scale":[
				0.5430836081504822,
				0.5430836081504822,
				0.5430836081504822
			],
			"translation":[
				0.6987786293029785,
				0.534460186958313,
				-0.3845146596431732
			]
		},
		{
			"mesh":12,
			"name":"Cube",
			"rotation":[
				0,
				0.7071068286895752,
				0,
				0.7071067094802856
			],
			"scale":[
				1.3300000429153442,
				1,
				0.5600000619888306
			],
			"translation":[
				0.5432206392288208,
				0,
				0.008689552545547485
			]
		},
		{
			"mesh":13,
			"name":"Cube.003",
			"rotation":[
				0,
				0.7071068286895752,
				0,
				0.7071067094802856
			],
			"scale":[
				0.9151313304901123,
				0.6143355965614319,
				0.900069534778595
			],
			"translation":[
				-0.39562901854515076,
				0.4256054162979126,
				0.00868961215019226
			]
		},
		{
			"mesh":14,
			"name":"Cube.004",
			"rotation":[
				0,
				0.7071068286895752,
				0,
				0.7071067094802856
			],
			"scale":[
				0.9151313304901123,
				0.6143355965614319,
				0.900069534778595
			],
			"translation":[
				-0.39562901854515076,
				0.4256054162979126,
				0.00868961215019226
			]
		}
	],
	"materials":[
		{
			"doubleSided":true,
			"name":"Material.008",
			"pbrMetallicRoughness":{
				"baseColorFactor":[
					0.6599977016448975,
					0.6599977016448975,
					0.6599977016448975,
					1
				],
				"metallicFactor":0,
				"roughnessFactor":0.5
			}
		},
		{
			"doubleSided":true,
			"name":"Material.004",
			"pbrMetallicRoughness":{
				"baseColorFactor":[
					0.8000229597091675,
					0.19447103142738342,
					0.46164798736572266,
					1
				],
				"metallicFactor":0,
				"roughnessFactor":0.5
			}
		},
		{
			"doubleSided":true,
			"name":"Material.005",
			"pbrMetallicRoughness":{
				"baseColorFactor":[
					0,
					0,
					0,
					1
				],
				"metallicFactor":0
			}
		},
		{
			"doubleSided":true,
			"name":"Material.006",
			"pbrMetallicRoughness":{
				"baseColorFactor":[
					0.8000626564025879,
					0.23249241709709167,
					0.3415102958679199,
					1
				],
				"metallicFactor":0,
				"roughnessFactor":0.5
			}
		},
		{
			"alphaMode":"BLEND",
			"doubleSided":true,
			"name":"Material.007",
			"pbrMetallicRoughness":{
				"baseColorFactor":[
					0.800000011920929,
					0.800000011920929,
					0.800000011920929,
					0.22499999403953552
				],
				"metallicFactor":0,
				"roughnessFactor":0
			}
		}
	],
	"meshes":[
		{
			"name":"Cube.009",
			"primitives":[
				{
					"attributes":{
						"POSITION":0,
						"NORMAL":1,
						"TEXCOORD_0":2
					},
					"indices":3,
					"material":0
				}
			]
		},
		{
			"name":"Cube.010",
			"primitives":[
				{
					"attributes":{
						"POSITION":4,
						"NORMAL":5,
						"TEXCOORD_0":6
					},
					"indices":3,
					"material":0
				}
			]
		},
		{
			"name":"Cube.011",
			"primitives":[
				{
					"attributes":{
						"POSITION":7,
						"NORMAL":8,
						"TEXCOORD_0":9
					},
					"indices":3,
					"material":0
				}
			]
		},
		{
			"name":"Cube.012",
			"primitives":[
				{
					"attributes":{
						"POSITION":10,
						"NORMAL":11,
						"TEXCOORD_0":12
					},
					"indices":3
				},
				{
					"attributes":{
						"POSITION":13,
						"NORMAL":14,
						"TEXCOORD_0":15
					},
					"indices":16,
					"material":1
				}
			]
		},
		{
			"name":"Cube.013",
			"primitives":[
				{
					"attributes":{
						"POSITION":17,
						"NORMAL":18,
						"TEXCOORD_0":19
					},
					"indices":3
				},
				{
					"attributes":{
						"POSITION":20,
						"NORMAL":21,
						"TEXCOORD_0":22
					},
					"indices":16,
					"material":1
				}
			]
		},
		{
			"name":"Sphere.001",
			"primitives":[
				{
					"attributes":{
						"POSITION":23,
						"NORMAL":24,
						"TEXCOORD_0":25
					},
					"indices":26
				}
			]
		},
		{
			"name":"Cube.014",
			"primitives":[
				{
					"attributes":{
						"POSITION":27,
						"NORMAL":28,
						"TEXCOORD_0":29
					},
					"indices":3
				}
			]
		},
		{
			"name":"Plane.001",
			"primitives":[
				{
					"attributes":{
						"POSITION":30,
						"NORMAL":31,
						"TEXCOORD_0":32
					},
					"indices":16,
					"material":2
				}
			]
		},
		{
			"name":"Cube.015",
			"primitives":[
				{
					"attributes":{
						"POSITION":33,
						"NORMAL":34,
						"TEXCOORD_0":35
					},
					"indices":3
				}
			]
		},
		{
			"name":"Plane.006",
			"primitives":[
				{
					"attributes":{
						"POSITION":36,
						"NORMAL":37,
						"TEXCOORD_0":38
					},
					"indices":16,
					"material":2
				}
			]
		},
		{
			"name":"Plane.007",
			"primitives":[
				{
					"attributes":{
						"POSITION":39,
						"NORMAL":40,
						"TEXCOORD_0":41
					},
					"indices":16
				}
			]
		},
		{
			"name":"Plane.008",
			"primitives":[
				{
					"attributes":{
						"POSITION":42,
						"NORMAL":43,
						"TEXCOORD_0":44
					},
					"indices":16
				}
			]
		},
		{
			"name":"Cube.016",
			"primitives":[
				{
					"attributes":{
						"POSITION":45,
						"NORMAL":46,
						"TEXCOORD_0":47
					},
					"indices":3,
					"material":3
				}
			]
		},
		{
			"name":"Cube.017",
			"primitives":[
				{
					"attributes":{
						"POSITION":48,
						"NORMAL":49,
						"TEXCOORD_0":50
					},
					"indices":51,
					"material":4
				}
			]
		},
		{
			"name":"Cube.019",
			"primitives":[
				{
					"attributes":{
						"POSITION":52,
						"NORMAL":53,
						"TEXCOORD_0":54
					},
					"indices":55,
					"material":2
				}
			]
		}
	],
	"accessors":[
		{
			"bufferView":0,
			"componentType":5126,
			"count":24,
			"max":[
				1,
				1,
				1
			],
			"min":[
				-1,
				-1,
				-1
			],
			"type":"VEC3"
		},
		{
			"bufferView":1,
			"componentType":5126,
			"count":24,
			"type":"VEC3"
		},
		{
			"bufferView":2,
			"componentType":5126,
			"count":24,
			"type":"VEC2"
		},
		{
			"bufferView":3,
			"componentType":5123,
			"count":36,
			"type":"SCALAR"
		},
		{
			"bufferView":4,
			"componentType":5126,
			"count":24,
			"max":[
				1,
				1,
				1
			],
			"min":[
				-1,
				-1,
				-1
			],
			"type":"VEC3"
		},
		{
			"bufferView":5,
			"componentType":5126,
			"count":24,
			"type":"VEC3"
		},
		{
			"bufferView":6,
			"componentType":5126,
			"count":24,
			"type":"VEC2"
		},
		{
			"bufferView":7,
			"componentType":5126,
			"count":24,
			"max":[
				1,
				1,
				1
			],
			"min":[
				-1,
				-1,
				-1
			],
			"type":"VEC3"
		},
		{
			"bufferView":8,
			"componentType":5126,
			"count":24,
			"type":"VEC3"
		},
		{
			"bufferView":9,
			"componentType":5126,
			"count":24,
			"type":"VEC2"
		},
		{
			"bufferView":10,
			"componentType":5126,
			"count":24,
			"max":[
				1.1343293190002441,
				1.7298814058303833,
				-0.23190820217132568
			],
			"min":[
				-0.9996699094772339,
				-0.012685894966125488,
				-2.2319083213806152
			],
			"type":"VEC3"
		},
		{
			"bufferView":11,
			"componentType":5126,
			"count":24,
			"type":"VEC3"
		},
		{
			"bufferView":12,
			"componentType":5126,
			"count":24,
			"type":"VEC2"
		},
		{
			"bufferView":13,
			"componentType":5126,
			"count":4,
			"max":[
				0.9360698461532593,
				1.5045560598373413,
				1.1920928955078125e-07
			],
			"min":[
				-0.717729926109314,
				-0.06672048568725586,
				-8.344650268554688e-07
			],
			"type":"VEC3"
		},
		{
			"bufferView":14,
			"componentType":5126,
			"count":4,
			"type":"VEC3"
		},
		{
			"bufferView":15,
			"componentType":5126,
			"count":4,
			"type":"VEC2"
		},
		{
			"bufferView":16,
			"componentType":5123,
			"count":6,
			"type":"SCALAR"
		},
		{
			"bufferView":17,
			"componentType":5126,
			"count":24,
			"max":[
				0.7180899381637573,
				1.679660439491272,
				-0.23190784454345703
			],
			"min":[
				-1.4159092903137207,
				-0.06290686130523682,
				-2.231907844543457
			],
			"type":"VEC3"
		},
		{
			"bufferView":18,
			"componentType":5126,
			"count":24,
			"type":"VEC3"
		},
		{
			"bufferView":19,
			"componentType":5126,
			"count":24,
			"type":"VEC2"
		},
		{
			"bufferView":20,
			"componentType":5126,
			"count":4,
			"max":[
				0.34882164001464844,
				1.4416029453277588,
				4.76837158203125e-07
			],
			"min":[
				-1.132659673690796,
				-0.11839711666107178,
				-4.76837158203125e-07
			],
			"type":"VEC3"
		},
		{
			"bufferView":21,
			"componentType":5126,
			"count":4,
			"type":"VEC3"
		},
		{
			"bufferView":22,
			"componentType":5126,
			"count":4,
			"type":"VEC2"
		},
		{
			"bufferView":23,
			"componentType":5126,
			"count":480,
			"max":[
				0.1900000274181366,
				0.19000005722045898,
				0.1900000125169754
			],
			"min":[
				-0.1899999976158142,
				-0.19000005722045898,
				-0.18999996781349182
			],
			"type":"VEC3"
		},
		{
			"bufferView":24,
			"componentType":5126,
			"count":480,
			"type":"VEC3"
		},
		{
			"bufferView":25,
			"componentType":5126,
			"count":480,
			"type":"VEC2"
		},
		{
			"bufferView":26,
			"componentType":5123,
			"count":672,
			"type":"SCALAR"
		},
		{
			"bufferView":27,
			"componentType":5126,
			"count":24,
			"max":[
				0.19999998807907104,
				0.19999998807907104,
				0.19999998807907104
			],
			"min":[
				-0.19999998807907104,
				-0.19999998807907104,
				-0.19999998807907104
			],
			"type":"VEC3"
		},
		{
			"bufferView":28,
			"componentType":5126,
			"count":24,
			"type":"VEC3"
		},
		{
			"bufferView":29,
			"componentType":5126,
			"count":24,
			"type":"VEC2"
		},
		{
			"bufferView":30,
			"componentType":5126,
			"count":4,
			"max":[
				0.07500004768371582,
				0,
				0.07500004768371582
			],
			"min":[
				-0.07500004768371582,
				0,
				-0.07500004768371582
			],
			"type":"VEC3"
		},
		{
			"bufferView":31,
			"componentType":5126,
			"count":4,
			"type":"VEC3"
		},
		{
			"bufferView":32,
			"componentType":5126,
			"count":4,
			"type":"VEC2"
		},
		{
			"bufferView":33,
			"componentType":5126,
			"count":24,
			"max":[
				0.19999998807907104,
				0.19999998807907104,
				0.19999998807907104
			],
			"min":[
				-0.19999998807907104,
				-0.19999998807907104,
				-0.19999998807907104
			],
			"type":"VEC3"
		},
		{
			"bufferView":34,
			"componentType":5126,
			"count":24,
			"type":"VEC3"
		},
		{
			"bufferView":35,
			"componentType":5126,
			"count":24,
			"type":"VEC2"
		},
		{
			"bufferView":36,
			"componentType":5126,
			"count":4,
			"max":[
				0.07500004768371582,
				0,
				0.07500004768371582
			],
			"min":[
				-0.07500004768371582,
				0,
				-0.07500004768371582
			],
			"type":"VEC3"
		},
		{
			"bufferView":37,
			"componentType":5126,
			"count":4,
			"type":"VEC3"
		},
		{
			"bufferView":38,
			"componentType":5126,
			"count":4,
			"type":"VEC2"
		},
		{
			"bufferView":39,
			"componentType":5126,
			"count":4,
			"max":[
				0.07500004768371582,
				0,
				0.07500004768371582
			],
			"min":[
				-0.07500004768371582,
				0,
				-0.07500004768371582
			],
			"type":"VEC3"
		},
		{
			"bufferView":40,
			"componentType":5126,
			"count":4,
			"type":"VEC3"
		},
		{
			"bufferView":41,
			"componentType":5126,
			"count":4,
			"type":"VEC2"
		},
		{
			"bufferView":42,
			"componentType":5126,
			"count":4,
			"max":[
				0.07500004768371582,
				0,
				0.07500004768371582
			],
			"min":[
				-0.07500004768371582,
				0,
				-0.07500004768371582
			],
			"type":"VEC3"
		},
		{
			"bufferView":43,
			"componentType":5126,
			"count":4,
			"type":"VEC3"
		},
		{
			"bufferView":44,
			"componentType":5126,
			"count":4,
			"type":"VEC2"
		},
		{
			"bufferView":45,
			"componentType":5126,
			"count":24,
			"max":[
				0.1000000461935997,
				0.1000000461935997,
				0.1000000461935997
			],
			"min":[
				-0.1000000461935997,
				-0.1000000461935997,
				-0.1000000461935997
			],
			"type":"VEC3"
		},
		{
			"bufferView":46,
			"componentType":5126,
			"count":24,
			"type":"VEC3"
		},
		{
			"bufferView":47,
			"componentType":5126,
			"count":24,
			"type":"VEC2"
		},
		{
			"bufferView":48,
			"componentType":5126,
			"count":20,
			"max":[
				1.2350000143051147,
				1.2350000143051147,
				1.2350000143051147
			],
			"min":[
				-1.2350000143051147,
				-1.2350000143051147,
				-1.2350000143051147
			],
			"type":"VEC3"
		},
		{
			"bufferView":49,
			"componentType":5126,
			"count":20,
			"type":"VEC3"
		},
		{
			"bufferView":50,
			"componentType":5126,
			"count":20,
			"type":"VEC2"
		},
		{
			"bufferView":51,
			"componentType":5123,
			"count":30,
			"type":"SCALAR"
		},
		{
			"bufferView":52,
			"componentType":5126,
			"count":128,
			"max":[
				1.2859904766082764,
				-1.251376986503601,
				1.2859904766082764
			],
			"min":[
				-1.2859904766082764,
				-1.4364120960235596,
				-1.2859904766082764
			],
			"type":"VEC3"
		},
		{
			"bufferView":53,
			"componentType":5126,
			"count":128,
			"type":"VEC3"
		},
		{
			"bufferView":54,
			"componentType":5126,
			"count":128,
			"type":"VEC2"
		},
		{
			"bufferView":55,
			"componentType":5123,
			"count":192,
			"type":"SCALAR"
		}
	],
	"bufferViews":[
		{
			"buffer":0,
			"byteLength":288,
			"byteOffset":0,
			"target":34962
		},
		{
			"buffer":0,
			"byteLength":288,
			"byteOffset":288,
			"target":34962
		},
		{
			"buffer":0,
			"byteLength":192,
			"byteOffset":576,
			"target":34962
		},
		{
			"buffer":0,
			"byteLength":72,
			"byteOffset":768,
			"target":34963
		},
		{
			"buffer":0,
			"byteLength":288,
			"byteOffset":840,
			"target":34962
		},
		{
			"buffer":0,
			"byteLength":288,
			"byteOffset":1128,
			"target":34962
		},
		{
			"buffer":0,
			"byteLength":192,
			"byteOffset":1416,
			"target":34962
		},
		{
			"buffer":0,
			"byteLength":288,
			"byteOffset":1608,
			"target":34962
		},
		{
			"buffer":0,
			"byteLength":288,
			"byteOffset":1896,
			"target":34962
		},
		{
			"buffer":0,
			"byteLength":192,
			"byteOffset":2184,
			"target":34962
		},
		{
			"buffer":0,
			"byteLength":288,
			"byteOffset":2376,
			"target":34962
		},
		{
			"buffer":0,
			"byteLength":288,
			"byteOffset":2664,
			"target":34962
		},
		{
			"buffer":0,
			"byteLength":192,
			"byteOffset":2952,
			"target":34962
		},
		{
			"buffer":0,
			"byteLength":48,
			"byteOffset":3144,
			"target":34962
		},
		{
			"buffer":0,
			"byteLength":48,
			"byteOffset":3192,
			"target":34962
		},
		{
			"buffer":0,
			"byteLength":32,
			"byteOffset":3240,
			"target":34962
		},
		{
			"buffer":0,
			"byteLength":12,
			"byteOffset":3272,
			"target":34963
		},
		{
			"buffer":0,
			"byteLength":288,
			"byteOffset":3284,
			"target":34962
		},
		{
			"buffer":0,
			"byteLength":288,
			"byteOffset":3572,
			"target":34962
		},
		{
			"buffer":0,
			"byteLength":192,
			"byteOffset":3860,
			"target":34962
		},
		{
			"buffer":0,
			"byteLength":48,
			"byteOffset":4052,
			"target":34962
		},
		{
			"buffer":0,
			"byteLength":48,
			"byteOffset":4100,
			"target":34962
		},
		{
			"buffer":0,
			"byteLength":32,
			"byteOffset":4148,
			"target":34962
		},
		{
			"buffer":0,
			"byteLength":5760,
			"byteOffset":4180,
			"target":34962
		},
		{
			"buffer":0,
			"byteLength":5760,
			"byteOffset":9940,
			"target":34962
		},
		{
			"buffer":0,
			"byteLength":3840,
			"byteOffset":15700,
			"target":34962
		},
		{
			"buffer":0,
			"byteLength":1344,
			"byteOffset":19540,
			"target":34963
		},
		{
			"buffer":0,
			"byteLength":288,
			"byteOffset":20884,
			"target":34962
		},
		{
			"buffer":0,
			"byteLength":288,
			"byteOffset":21172,
			"target":34962
		},
		{
			"buffer":0,
			"byteLength":192,
			"byteOffset":21460,
			"target":34962
		},
		{
			"buffer":0,
			"byteLength":48,
			"byteOffset":21652,
			"target":34962
		},
		{
			"buffer":0,
			"byteLength":48,
			"byteOffset":21700,
			"target":34962
		},
		{
			"buffer":0,
			"byteLength":32,
			"byteOffset":21748,
			"target":34962
		},
		{
			"buffer":0,
			"byteLength":288,
			"byteOffset":21780,
			"target":34962
		},
		{
			"buffer":0,
			"byteLength":288,
			"byteOffset":22068,
			"target":34962
		},
		{
			"buffer":0,
			"byteLength":192,
			"byteOffset":22356,
			"target":34962
		},
		{
			"buffer":0,
			"byteLength":48,
			"byteOffset":22548,
			"target":34962
		},
		{
			"buffer":0,
			"byteLength":48,
			"byteOffset":22596,
			"target":34962
		},
		{
			"buffer":0,
			"byteLength":32,
			"byteOffset":22644,
			"target":34962
		},
		{
			"buffer":0,
			"byteLength":48,
			"byteOffset":22676,
			"target":34962
		},
		{
			"buffer":0,
			"byteLength":48,
			"byteOffset":22724,
			"target":34962
		},
		{
			"buffer":0,
			"byteLength":32,
			"byteOffset":22772,
			"target":34962
		},
		{
			"buffer":0,
			"byteLength":48,
			"byteOffset":22804,
			"target":34962
		},
		{
			"buffer":0,
			"byteLength":48,
			"byteOffset":22852,
			"target":34962
		},
		{
			"buffer":0,
			"byteLength":32,
			"byteOffset":22900,
			"target":34962
		},
		{
			"buffer":0,
			"byteLength":288,
			"byteOffset":22932,
			"target":34962
		},
		{
			"buffer":0,
			"byteLength":288,
			"byteOffset":23220,
			"target":34962
		},
		{
			"buffer":0,
			"byteLength":192,
			"byteOffset":23508,
			"target":34962
		},
		{
			"buffer":0,
			"byteLength":240,
			"byteOffset":23700,
			"target":34962
		},
		{
			"buffer":0,
			"byteLength":240,
			"byteOffset":23940,
			"target":34962
		},
		{
			"buffer":0,
			"byteLength":160,
			"byteOffset":24180,
			"target":34962
		},
		{
			"buffer":0,
			"byteLength":60,
			"byteOffset":24340,
			"target":34963
		},
		{
			"buffer":0,
			"byteLength":1536,
			"byteOffset":24400,
			"target":34962
		},
		{
			"buffer":0,
			"byteLength":1536,
			"byteOffset":25936,
			"target":34962
		},
		{
			"buffer":0,
			"byteLength":1024,
			"byteOffset":27472,
			"target":34962
		},
		{
			"buffer":0,
			"byteLength":384,
			"byteOffset":28496,
			"target":34963
		}
	],
	"buffers":[
		{
			"byteLength":28880,
			"uri":"SpaceRabbit.bin"
		}
	]
}
