{
	"asset":{
		"generator":"Khronos glTF Blender I/O v4.4.56",
		"version":"2.0"
	},
	"scene":0,
	"scenes":[
		{
			"name":"techLogo_React",
			"nodes":[
				0
			]
		}
	],
	"nodes":[
		{
			"mesh":0,
			"name":"React-Logo_Material.002_0",
			"rotation":[
				0,
				0,
				-0.7071065902709961,
				0.7071069478988647
			],
			"scale":[
				0.3916591703891754,
				0.39165908098220825,
				0.5273356437683105
			]
		}
	],
	"materials":[
		{
			"doubleSided":true,
			"emissiveFactor":[
				0.02390740066766739,
				0.14022019505500793,
				0.1929371953010559
			],
			"name":"Material.004",
			"pbrMetallicRoughness":{
				"baseColorFactor":[
					0.11953700333833694,
					0.7011010050773621,
					0.9646859765052795,
					1
				],
				"roughnessFactor":0.5
			}
		}
	],
	"meshes":[
		{
			"name":"React-Logo_Material.002_0",
			"primitives":[
				{
					"attributes":{
						"POSITION":0,
						"NORMAL":1,
						"TEXCOORD_0":2
					},
					"indices":3,
					"material":0
				}
			]
		}
	],
	"accessors":[
		{
			"bufferView":0,
			"componentType":5126,
			"count":43173,
			"max":[
				4.963544845581055,
				5.5312113761901855,
				0.18764571845531464
			],
			"min":[
				-5.02656364440918,
				-5.6208977699279785,
				-0.1891026794910431
			],
			"type":"VEC3"
		},
		{
			"bufferView":1,
			"componentType":5126,
			"count":43173,
			"type":"VEC3"
		},
		{
			"bufferView":2,
			"componentType":5126,
			"count":43173,
			"type":"VEC2"
		},
		{
			"bufferView":3,
			"componentType":5123,
			"count":58944,
			"type":"SCALAR"
		}
	],
	"bufferViews":[
		{
			"buffer":0,
			"byteLength":518076,
			"byteOffset":0,
			"target":34962
		},
		{
			"buffer":0,
			"byteLength":518076,
			"byteOffset":518076,
			"target":34962
		},
		{
			"buffer":0,
			"byteLength":345384,
			"byteOffset":1036152,
			"target":34962
		},
		{
			"buffer":0,
			"byteLength":117888,
			"byteOffset":1381536,
			"target":34963
		}
	],
	"buffers":[
		{
			"byteLength":1499424,
			"uri":"React.bin"
		}
	]
}
