{
	"asset":{
		"generator":"Khronos glTF Blender I/O v4.4.55",
		"version":"2.0"
	},
	"scene":0,
	"scenes":[
		{
			"name":"techLogo_NodeJS",
			"nodes":[
				0
			]
		}
	],
	"nodes":[
		{
			"mesh":0,
			"name":"Node",
			"rotation":[
				0.7071068286895752,
				0,
				0,
				0.7071068286895752
			],
			"scale":[
				1.0312533378601074,
				0.8612533807754517,
				1.0312533378601074
			],
			"translation":[
				0.14537313580513,
				-0.06316952407360077,
				0
			]
		}
	],
	"materials":[
		{
			"doubleSided":true,
			"name":"Material.003",
			"pbrMetallicRoughness":{
				"baseColorFactor":[
					0.021218445152044296,
					0.45641157031059265,
					0.10702323168516159,
					1
				],
				"roughnessFactor":0.5
			}
		}
	],
	"meshes":[
		{
			"name":"Text.001",
			"primitives":[
				{
					"attributes":{
						"POSITION":0,
						"NORMAL":1,
						"TEXCOORD_0":2
					},
					"indices":3,
					"material":0
				}
			]
		}
	],
	"accessors":[
		{
			"bufferView":0,
			"componentType":5126,
			"count":2516,
			"max":[
				0.6960983276367188,
				0.06892355531454086,
				0.8979682922363281
			],
			"min":[
				-0.9408637285232544,
				-0.050249263644218445,
				-0.990626335144043
			],
			"type":"VEC3"
		},
		{
			"bufferView":1,
			"componentType":5126,
			"count":2516,
			"type":"VEC3"
		},
		{
			"bufferView":2,
			"componentType":5126,
			"count":2516,
			"type":"VEC2"
		},
		{
			"bufferView":3,
			"componentType":5123,
			"count":7044,
			"type":"SCALAR"
		}
	],
	"bufferViews":[
		{
			"buffer":0,
			"byteLength":30192,
			"byteOffset":0,
			"target":34962
		},
		{
			"buffer":0,
			"byteLength":30192,
			"byteOffset":30192,
			"target":34962
		},
		{
			"buffer":0,
			"byteLength":20128,
			"byteOffset":60384,
			"target":34962
		},
		{
			"buffer":0,
			"byteLength":14088,
			"byteOffset":80512,
			"target":34963
		}
	],
	"buffers":[
		{
			"byteLength":94600,
			"uri":"NodeJS.bin"
		}
	]
}
